HIERARCHY
ROOT pelvis
{
  OFFSET 0 100 0
  CHANNELS 6 Xposition Yposition Zposition Zrotation Xrotation Yrotation
  JOINT pelvis_right_femur
  {
    OFFSET -10.78128 -3.44521 -0.5502486
    CHANNELS 3 Zrotation Xrotation Yrotation
    JOINT right_femur_tibia
    {
      OFFSET -0.8047443 -44.0398 -0.1307829
      CHANNELS 3 Zrotation Xrotation Yrotation
      JOINT right_tibia_foot
      {
        OFFSET 3.006224 -47.83518 -5
        CHANNELS 3 Zrotation Xrotation Yrotation
        End Site
        {
          OFFSET 0 -5 15
        }
      }
    }
  }
  JOINT pelvis_left_femur
  {
    OFFSET 10.78128 -3.44521 -0.5502486
    CHANNELS 3 Zrotation Xrotation Yrotation
    JOINT left_femur_tibia
    {
      OFFSET 0.8047443 -44.0398 -0.1307829
      CHANNELS 3 Zrotation Xrotation Yrotation
      JOINT left_tibia_foot
      {
        OFFSET -4.370144 -48.10324 -4.275266
        CHANNELS 3 Zrotation Xrotation Yrotation
        End Site
        {
          OFFSET 0 -5 15
        }
      }
    }
  }
  JOINT pelvis_spine1
  {
    OFFSET 0 6.468898 -3.129235
    CHANNELS 3 Zrotation Xrotation Yrotation
    JOINT spine1
    {
      OFFSET 0 23.15396 4.99043
      CHANNELS 3 Zrotation Xrotation Yrotation
      JOINT spine2
      {
        OFFSET 0 20.79997 -5.064912
        CHANNELS 3 Zrotation Xrotation Yrotation
        JOINT neck
        {
          OFFSET 0 14.38658 9.616178
          CHANNELS 3 Zrotation Xrotation Yrotation
          End Site
          {
            OFFSET 0 20 0
          }
        }
      }
      JOINT right_manubrium
      {
        OFFSET -5.722621 16.35077 3.967754
        CHANNELS 3 Zrotation Xrotation Yrotation
        JOINT right_clavicle
        {
          OFFSET -13.16364 1.694482 -4.693211
          CHANNELS 3 Zrotation Xrotation Yrotation
          JOINT right_humerus
          {
            OFFSET -28.5034 -0.3100689 -2.792744
            CHANNELS 3 Zrotation Xrotation Yrotation
            JOINT right_radius
            {
              OFFSET -25.15693 0.02248979 -1.271978
              CHANNELS 3 Zrotation Xrotation Yrotation
              End Site
              {
                OFFSET -15 0 0
              }
            }
          }
        }
      }
      JOINT left_manubrium
      {
        OFFSET 5.722621 16.35077 3.967754
        CHANNELS 3 Zrotation Xrotation Yrotation
        JOINT left_clavicle
        {
          OFFSET 13.16364 1.694482 -4.693211
          CHANNELS 3 Zrotation Xrotation Yrotation
          JOINT left_humerus
          {
            OFFSET 29.39168 -1.063119 -2.237045
            CHANNELS 3 Zrotation Xrotation Yrotation
            JOINT left_radius
            {
              OFFSET 24.59957 -0.9528479 0.9047498
              CHANNELS 3 Zrotation Xrotation Yrotation
              End Site
              {
                OFFSET 15 -0 -0
              }
            }
          }
        }
      }
    }
  }
}
MOTION
Frames: 23
Frame Time: 0.0416666666667
0 103.5113 0 2.393798 -0.8106365 -0.1169857 1.665576 -12.25385 9.811741 -0 35.63756 -0 -6.749944 -17.17465 -2.785244 -8.345159 9.637606 -23.23485 -0 5.2151 -0 16.08789 -11.95204 29.882 -5.082097 -4.975054 5.207005 2.60338 10.43542 -7.663108 1.565141 22.80568 5.793518 1.901145 -24.07141 9.653607 6.4457 -20.44962 11.72218 86.88099 38.90481 -18.864 -0 0 14.91185 -8.0337 9.188344 5.172244 4.699368 -19.40403 -1.836126 -90.82183 21.74735 19.01856 0 0 -14.90183 15.14173 15.89032 -3.431939
0.2827639 103.1458 1.526248 1.801321 -0.4818549 -0.2083246 2.496721 -14.40931 9.6926 -0 36.77029 -0 -6.766015 -15.92595 -2.738788 -7.862834 9.731731 -22.73279 -0 5.133333 -0 15.08911 -12.98955 29.13419 -4.66379 -4.617907 4.995971 2.621024 10.35278 -7.755039 1.506145 22.37674 6.029709 2.158924 -24.36563 9.650142 6.482468 -20.29202 11.74756 86.4772 38.38478 -18.55545 -0 0 15.3489 -8.120565 9.182973 5.099686 5.154951 -19.631 -1.540004 -90.98963 21.31402 19.11 0 0 -14.66228 15.19926 15.73171 -3.632589
0.4558006 102.4578 2.547109 1.437131 0.04116074 -0.3028931 3.635476 -17.49663 10.45516 -0 33.46408 -0 -5.251426 -21.22242 -3.013197 -7.684078 12.21656 -25.25003 -0 3.846759 -0 12.68846 -16.12153 28.99477 -4.040769 -4.856095 5.203495 2.929715 9.169486 -7.546897 1.787926 22.56264 5.761856 2.005195 -25.50983 9.964954 5.484402 -20.5538 11.31451 86.40974 34.60026 -19.52639 -0 0 16.8152 -3.857555 5.974426 3.170448 5.853756 -19.19233 -0.9168217 -93.92278 25.82444 21.5971 0 0 -15.87325 12.35844 17.40709 0.03413327
0.6312809 101.823 3.833255 0.8437958 0.4520851 -0.3167104 4.497372 -19.65534 10.24638 -0 33.77099 -0 -5.388903 -19.52818 -3.035751 -7.196526 12.28783 -24.48868 -0 4.398366 -0 11.17724 -17.35193 27.84696 -3.6775 -4.435311 4.950251 3.024308 9.075283 -7.734174 1.678426 22.10271 6.048747 2.357049 -25.83813 9.846499 5.570227 -20.29756 11.3476 86.102 34.16951 -19.53505 -0 0 16.90388 -4.072076 6.031615 3.211474 6.206827 -19.48749 -0.706742 -94.15496 25.93679 21.79093 0 0 -15.9647 11.51901 17.25677 0.9116796
0.7958012 101.2006 5.334697 0.2869085 0.9155034 -0.2726899 5.353669 -21.87666 10.12447 -0 33.27923 -0 -5.463783 -18.43781 -3.009121 -6.735467 12.56917 -24.01944 -0 4.939615 -0 9.673666 -18.59735 26.7907 -3.291712 -4.087937 4.75509 3.12965 8.879768 -7.860727 1.64463 21.71834 6.258834 2.652791 -26.23604 9.80873 5.552659 -20.06296 11.31698 85.8714 33.59215 -19.64364 -0 0 17.01912 -3.950581 5.879012 3.066591 6.584769 -19.71828 -0.4632985 -94.52804 26.24987 22.06133 0 0 -16.12593 10.80897 17.26248 1.695707
0.9851116 100.653 7.272749 -0.3418929 1.343085 -0.1470306 6.118034 -24.0632 9.671145 -0 33.26779 -0 -5.886116 -15.39573 -2.988301 -6.201543 12.25822 -22.46842 -0 6.051728 -0 8.277095 -19.40578 25.28404 -2.981733 -3.514848 4.403267 3.237423 9.021275 -8.177422 1.471581 21.1147 6.645018 3.068725 -26.41557 9.623435 5.805891 -19.66976 11.43073 85.6184 33.79281 -19.61855 -0 0 16.6575 -5.165412 6.751124 3.576599 6.865399 -20.20302 -0.3719768 -94.04202 25.44307 21.54738 0 0 -16.19304 10.39201 16.66964 2.005956
1.206949 100.1443 9.710472 -0.9540354 1.755275 0.05733439 6.783756 -26.36302 9.056431 -0 32.53363 -0 -6.324677 -11.97693 -2.958041 -5.660687 11.9205 -20.60109 -0 7.39483 -0 6.752324 -20.17355 23.51126 -2.693097 -2.86361 4.025497 3.376417 9.224362 -8.551201 1.28213 20.46827 7.042155 3.492623 -26.54214 9.38588 6.038066 -19.21894 11.54996 85.44835 33.99605 -19.69082 -0 0 16.08668 -6.694561 7.788003 4.295384 7.125148 -20.76446 -0.3644387 -93.3473 24.45206 20.7848 0 0 -16.41617 9.920082 15.87321 2.360485
1.47577 99.60585 12.75814 -1.475877 2.045092 0.340052 7.148116 -28.65782 8.070966 -0 30.75525 -0 -6.748894 -7.819245 -2.97027 -5.142751 11.4905 -18.11093 -0 9.036307 -0 5.031576 -20.83732 21.26761 -2.486359 -2.062973 3.601338 3.551925 9.565907 -9.029648 1.039973 19.76914 7.45222 3.914903 -26.48733 9.007802 6.222044 -18.67185 11.68787 85.44441 34.16975 -19.92019 -0 0 15.13546 -8.877899 9.094982 5.463695 7.306951 -21.4564 -0.5627802 -92.22481 23.12994 19.54098 0 0 -16.95068 9.241498 14.6407 2.905108
1.791927 98.87763 16.50118 -1.701185 2.050874 0.6878841 6.85394 -30.6683 6.515377 -0 26.93966 -0 -6.918771 -3.357024 -3.142676 -4.768966 11.17531 -15.05208 -0 10.79234 -0 3.037028 -21.43977 18.48019 -2.450926 -1.132411 3.19369 3.753204 9.98677 -9.572037 0.7819558 19.1439 7.759214 4.225511 -26.11353 8.44798 6.147556 -18.02367 11.77218 85.79793 33.92903 -20.47373 -0 0 13.70728 -11.62229 10.39265 7.104313 7.353883 -22.21882 -1.09452 -90.61362 21.72282 17.67393 0 0 -18.12527 8.12737 12.89231 3.928946
2.123757 97.6501 20.99109 -1.249799 1.460229 1.09083 5.299912 -31.78077 4.123927 -0 19.87336 -0 -6.37039 0.5484073 -3.764384 -4.768645 11.34946 -11.59455 -0 12.08085 -0 0.8014486 -22.03725 15.18532 -2.761259 -0.1469936 2.910384 3.898062 10.34574 -10.04789 0.6102745 18.85107 7.738416 4.199937 -25.11152 7.706298 5.425821 -17.22807 11.652 86.79821 32.65983 -21.48431 -0 0 11.69059 -14.72491 11.29215 9.101927 7.209399 -22.90746 -2.114299 -88.25008 20.50125 14.73117 0 0 -20.41726 6.506298 10.56232 5.521263
2.379733 95.47722 26.21348 0.2972382 -0.00552402 1.618253 2.143746 -31.28443 1.121229 -0 9.090554 -0 -4.500845 1.913806 -5.25613 -5.403971 12.87853 -8.594269 -0 11.55314 -0 -1.481893 -22.98141 11.94264 -3.601681 0.5944459 2.885407 3.772462 10.19495 -10.09844 0.8255624 19.31292 7.01805 3.519248 -23.15372 7.039398 3.51514 -16.1216 11.03229 88.63328 29.58369 -22.81836 -0 0 9.23076 -17.16225 11.22327 10.58105 7.021661 -23.19203 -3.475639 -84.93801 20.03943 10.08677 0 0 -24.16572 4.771351 8.173111 7.166752
2.465022 92.23976 32.16148 2.436203 -1.827365 2.443191 -1.167411 -29.78052 -0.9234807 0 -1.080204 0 -1.850535 -0.6752872 -7.494369 -6.277757 16.69343 -7.528519 -0 8.169429 -0 -3.613551 -24.71468 9.980607 -4.725636 0.5873606 2.903249 3.205474 9.01273 -9.392702 1.769898 20.51272 5.512275 2.294434 -20.58357 6.950973 0.7418353 -14.40081 9.821681 90.67699 25.24682 -23.72517 -0 0 7.065759 -17.17397 10.13862 9.938301 7.329295 -22.83023 -4.236771 -81.28507 20.92497 3.977098 0 0 -28.23621 3.876229 7.282125 7.544331
2.410293 89.02337 38.78375 2.775888 -2.396337 3.339397 -1.004582 -29.62693 -0.03857224 0 -0.7655545 0 -1.08306 -3.759069 -9.237978 -5.723873 21.3031 -8.852626 -0 6.14352 -0 -5.938238 -25.4547 9.706661 -4.762056 -0.1456038 2.191023 2.695881 7.550312 -8.599943 2.833405 21.19918 4.254181 1.660507 -19.18381 7.189777 -0.3618313 -12.55428 8.935556 91.25687 23.01662 -23.63831 -0 0 6.193307 -14.54675 8.999382 7.491588 7.949559 -22.09497 -3.633607 -79.63926 23.26902 0.2182066 0 0 -29.20149 3.580318 8.66819 7.326567
2.215032 87.11809 45.63053 0.7916669 -2.35878 3.827408 2.772744 -29.21397 2.774397 -0 8.937282 -0 -2.802565 -4.499392 -9.713541 -3.735647 22.76573 -10.66046 -0 14.28829 -0 -8.42127 -21.88042 9.95438 -2.979852 -0.5267426 1.048856 2.753597 7.159549 -8.431956 3.056729 21.34287 3.985209 1.807425 -19.43157 7.070062 0.993862 -11.73121 9.144881 90.52131 24.0316 -23.07913 -0 0 5.910201 -11.96839 8.637024 6.082326 7.205234 -21.07986 -2.995962 -80.89195 26.12479 1.645923 0 0 -26.31043 2.332698 10.56144 9.312995
1.901906 86.57741 52.31064 -0.8296666 -3.189571 3.772883 5.928014 -25.70076 4.696098 -0 16.23276 -0 -4.84986 -5.549519 -9.359053 -2.448774 20.06188 -11.25011 -0 30.46681 -0 -9.799806 -16.32314 10.50307 -1.189004 -0.1626199 0.7600974 2.926024 7.389955 -8.170153 2.972815 22.08584 3.964471 1.856125 -19.70063 6.919445 2.453042 -11.57716 9.758735 89.91 25.73023 -22.27258 -0 0 5.316311 -10.85537 9.035711 5.936724 5.52858 -19.98908 -2.890763 -82.98135 28.1015 4.683989 0 0 -22.83724 1.013359 11.90612 11.82819
1.581868 87.01973 58.68682 -1.399337 -3.908243 3.293151 7.2768 -20.4662 5.21371 -0 18.28984 -0 -6.372688 -6.945537 -8.411695 -2.120806 14.49824 -10.86204 -0 45.49364 -0 -10.07255 -11.7169 10.98009 -0.3077667 0.3745352 1.417544 2.948534 7.837257 -7.674915 2.816199 22.84967 4.022838 1.955506 -19.88093 6.739602 3.466159 -11.91374 10.37095 89.15815 27.4459 -21.20626 -0 0 5.231456 -10.9291 9.834214 6.468546 4.230328 -19.30587 -2.838494 -85.08249 29.00042 7.835084 0 0 -20.46174 0.2404909 12.5252 13.57642
1.308772 87.97885 64.71623 -1.315661 -4.185689 2.595653 7.403234 -14.69381 4.862743 -0 17.33553 -0 -7.345395 -8.35285 -7.039946 -2.16193 7.331763 -10.06572 -0 56.04307 -0 -9.759572 -8.405272 11.26363 -0.1093275 0.833459 2.615246 2.766614 8.354669 -7.063312 2.553762 23.32322 4.255183 2.231135 -20.05437 6.521169 4.189774 -12.67939 10.91837 88.04159 29.27048 -19.84796 -0 0 5.966694 -11.91178 10.8372 7.377007 3.551742 -19.05905 -2.722076 -86.99457 29.05206 10.97372 0 0 -19.12454 -0.0245224 12.62859 14.55478
1.109258 89.04106 70.43204 -0.8515374 -4.190154 1.842707 6.805855 -8.783303 4.078909 -0 15.08366 -0 -7.782366 -9.735595 -5.464614 -2.194158 -0.5691256 -9.089966 -0 61.51679 -0 -9.182427 -6.267698 11.526 -0.345353 1.164529 4.051405 2.382054 8.83537 -6.38073 2.227402 23.52648 4.611797 2.626337 -20.12135 6.289644 4.654096 -13.76455 11.36092 86.55534 31.05075 -18.11329 -0 0 7.450397 -13.56321 11.84581 8.454206 3.398874 -19.10645 -2.546841 -88.52513 28.47499 13.88166 0 0 -18.49873 0.1090707 12.42242 14.86439
0.9961321 89.8714 75.92362 -0.2166169 -4.223138 1.142465 5.885529 -3.029423 3.210057 -0 12.699 -0 -7.731354 -11.045 -4.01064 -1.990802 -8.17879 -7.977307 -0 61.76136 -0 -8.505698 -5.304416 12.16532 -0.8348846 1.378301 5.3936 1.853167 9.167012 -5.659839 1.951597 23.58459 4.934579 2.999097 -19.90499 6.07764 4.77061 -14.98577 11.62537 84.81701 32.36616 -15.90754 -0 0 9.425193 -15.55254 12.58315 9.517541 3.626539 -19.22709 -2.323432 -89.50158 27.49746 16.11778 0 0 -18.11781 0.506234 12.08921 14.53372
0.9675831 90.21477 81.30995 0.3744958 -4.644965 0.5281844 5.023681 2.406914 2.546868 -0 10.97462 -0 -7.321664 -12.23903 -3.036519 -1.414403 -14.4824 -6.712871 -0 57.09233 -0 -7.755216 -5.452111 13.71828 -1.39519 1.547417 6.289796 1.273774 9.269632 -4.921927 1.850174 23.66272 5.036157 3.192649 -19.19395 5.898692 4.424203 -16.14126 11.64136 83.02238 32.68422 -13.11889 -0 0 11.62355 -17.50383 12.73397 10.4511 4.067106 -19.11194 -2.089412 -89.95613 26.25552 17.29561 0 0 -17.20547 1.011904 11.76685 13.52987
1.026189 89.90678 86.70488 0.7110877 -5.554482 -0.04463086 4.505355 7.450629 2.276104 -0 10.24546 -0 -6.606741 -13.44296 -2.67718 -0.4632481 -19.01364 -5.4085 -0 48.21276 -0 -6.934961 -6.352812 16.30227 -1.775992 1.745322 6.575304 0.7366466 9.136646 -4.199444 1.937267 23.81251 4.830602 3.09816 -18.01328 5.740635 3.594955 -17.22921 11.4259 81.38634 31.60749 -9.767531 -0 0 14.10006 -19.08462 12.04153 11.31897 4.536041 -18.45869 -1.914735 -90.28158 24.83531 17.70937 0 0 -15.08482 1.380348 11.42461 12.13481
1.194843 88.88304 92.213 0.665032 -6.675298 -0.6712326 4.389523 12.02157 2.430188 -0 10.51184 -0 -5.390251 -15.02873 -2.741861 0.6536142 -21.99638 -4.381733 -0 36.3754 -0 -6.216086 -7.441322 19.28228 -1.722978 1.960775 6.40254 0.292046 8.797919 -3.523448 2.119601 23.95818 4.37022 2.665789 -16.7157 5.616085 2.353956 -18.4405 11.06665 80.16568 28.95257 -6.163507 -0 0 17.18154 -20.03706 10.40917 12.28717 4.872305 -17.11708 -1.836162 -91.01389 23.48993 18.29105 0 0 -11.7286 1.289691 10.91467 11.10554
1.508503 87.24273 97.95786 0.2906009 -7.474579 -1.420395 4.448314 15.90108 2.873286 -0 11.75135 -0 -3.382633 -17.13706 -2.782054 1.504016 -24.004 -4.012655 -0 24.08477 -0 -5.97547 -8.248154 21.45136 -1.194714 2.046333 6.194443 -0.06040221 8.320269 -2.924649 2.284562 23.96237 3.836521 1.983385 -15.84061 5.577289 0.8917793 -19.86871 10.64859 79.59779 24.99304 -2.963559 -0 0 20.95448 -20.26184 8.097306 13.40398 5.013362 -15.29351 -1.78252 -92.411 22.67085 19.89433 0 0 -8.008921 0.5353666 10.1217 11.30526
